# xmcd
#
# Track frame offsets:
#	151
#	43511
#	86336
#	132757
#	165625
#	205427
#	243855
#
# Disc length: 3607 seconds
#
# Revision: 1
# Processed by: cddbd v1.4PL0 Copyright (c) Steve Scherf et al.
# Submitted via: dBpowerAMP V4.0
#
DISCID=520e1507
DTITLE=Abida - Abida Mere Dil Se
DYEAR=2003
DGENRE=Salsa
TTITLE0=Main Naraye Mastana
TTITLE1=Jis Din Ke Saajan
TTITLE2=Tu ne Diwana Banaya
TTITLE3=Preetam Mat Pardes
TTITLE4=Ajab Nain Tere
TTITLE5=Hairan Hua Hairan Hua
TTITLE6=Hum Ko Pasand Yaar Ki
EXTD=
EXTT0=
EXTT1=
EXTT2=
EXTT3=
EXTT4=
EXTT5=
EXTT6=
PLAYORDER=
